<svg width="14" height="14" viewBox="0 0 14 14" fill="none" xmlns="http://www.w3.org/2000/svg">
<path d="M6.19277 0.604014C6.59225 0.0576575 7.40775 0.0576583 7.80723 0.604015L9.72561 3.22769C9.84904 3.39649 10.0223 3.52235 10.2209 3.58757L13.309 4.6013C13.9521 4.8124 14.2041 5.58798 13.8079 6.13675L11.9055 8.77199C11.7831 8.94154 11.7169 9.14519 11.7163 9.3543L11.7064 12.6045C11.7044 13.2813 11.0446 13.7606 10.4003 13.5534L7.30614 12.5584C7.10706 12.4944 6.89293 12.4944 6.69386 12.5584L3.59971 13.5534C2.95538 13.7606 2.29563 13.2813 2.29358 12.6045L2.28373 9.3543C2.2831 9.14519 2.21693 8.94154 2.09453 8.77199L0.192079 6.13675C-0.204089 5.58798 0.0479136 4.8124 0.690977 4.6013L3.77905 3.58757C3.97773 3.52235 4.15097 3.39649 4.27439 3.22769L6.19277 0.604014Z" fill="#0FCCD3"/>
</svg>
